PathFileType	4	(X/Y/Z)	C:\Users\WrightLab\Desktop\Jo\P4V119.trc
DataRate	CameraRate	NumFrames	NumMarkers	Units	OrigDataRate	OrigDataStartFrame	OrigNumFrames
100.00	100.00	       7	19	mm	100.00	436	       697
Frame#	Time	Headset_Front			Headset_Back			Headset_Left			Headset_Right			Left_Shoulder			Right_Shoulder			Sternum			C7			Left Elbow			Right Elbow			Left Wrist			Right Wrist			Left ASIS			Right ASIS			S2			Left Knee			Right Knee			Left Ankle			Right Ankle			
		X1	Y1	Z1	X2	Y2	Z2	X3	Y3	Z3	X4	Y4	Z4	X5	Y5	Z5	X6	Y6	Z6	X7	Y7	Z7	X8	Y8	Z8	X9	Y9	Z9	X10	Y10	Z10	X11	Y11	Z11	X12	Y12	Z12	X13	Y13	Z13	X14	Y14	Z14	X15	Y15	Z15	X16	Y16	Z16	X17	Y17	Z17	X18	Y18	Z18	X19	Y19	Z19	

436	4.350	126.97664	1697.86365	886.61121							0.47225	1717.47314	805.12244	213.27684	1534.52332	609.30255	-65.09541	1555.87659	734.99969	125.68993	1479.63635	768.44604				338.82266	1187.23193	528.03400	-226.54892	1222.60144	783.44092	382.09155	901.22357	649.98785	-164.65065	971.11383	942.29224	218.08774	1054.96411	647.79242	-47.93077	1047.01416	846.85126	-13.06834	1068.12695	588.19513	248.57706	570.86621	612.04413	8.12716	610.67889	978.85956	188.96484	73.14238	529.11664	-8.87430	197.30586	677.17792	
437	4.360	129.20653	1697.72339	896.63824							4.44672	1716.78247	814.01251	219.12369	1534.25793	620.33368	-60.73240	1555.88074	742.74200	129.28825	1479.25330	778.55933				347.94922	1187.92444	541.53827	-223.46988	1222.39331	788.45917	389.84628	902.93353	664.50879	-163.36728	970.93274	947.88989	223.21552	1055.18616	656.71771	-45.04041	1047.42261	854.94421	-7.38007	1068.09302	595.78796	249.94446	570.55048	615.78015	11.99025	613.78558	989.21844	188.87096	73.22813	529.38361	9.86361	186.89249	703.18329	
438	4.370	131.67281	1697.34631	906.58228							7.42375	1716.18701	823.01202	224.39984	1534.46021	632.39325	-56.62619	1555.17944	750.71814	132.90118	1478.46472	788.45416				357.28592	1188.70068	555.39954	-219.84013	1221.51038	793.71973	396.79727	904.64905	681.07281	-162.18799	970.09106	953.71545	228.26076	1055.08850	666.47345	-42.56290	1046.95801	861.51727	-1.88013	1068.38391	603.14301	250.91257	570.56793	619.41827	15.95637	615.69989	999.25232	188.53383	73.78222	529.64716	28.02691	176.79984	729.56555	
439	4.380	134.41742	1696.64575	916.69159							10.63553	1715.51855	832.08881	229.86996	1534.24158	643.51440	-52.45580	1554.83020	758.51025	136.38568	1478.01855	798.32037				365.54584	1188.88757	569.24866	-216.81487	1221.34729	799.30115	406.27710	906.76929	699.63947	-161.21468	968.91278	959.32587	233.57515	1054.73181	675.73425	-38.48940	1046.78137	868.89209	3.76936	1068.40552	610.58997	251.81718	570.28864	623.17017	19.91104	616.63757	1008.70740	188.13660	73.94753	530.32483	44.75171	166.89922	757.53082	
440	4.390	136.36491	1695.79919	926.85065							14.10007	1714.66223	841.10016	234.86244	1533.57141	653.09125	-49.63225	1553.96484	766.80292	140.10606	1476.96143	808.15240				373.72855	1189.22351	584.18530	-213.26637	1219.98926	804.51953	413.13965	907.83069	715.56714	-160.27321	967.44678	964.89832	238.40120	1054.07935	685.21991	-35.97551	1045.70703	875.75732	10.33823	1067.78589	618.60413	253.75140	570.47528	627.21185	23.44646	617.41864	1017.83606	188.39230	74.19572	530.57770	61.28407	156.15939	786.03656	
441	4.400	138.54251	1694.96143	936.83527							16.71391	1713.84155	850.36292	239.24715	1533.34949	666.71210				143.23064	1475.94727	817.98883				381.62491	1189.24878	598.21625	-210.12592	1218.68823	810.70276	420.46909	908.40271	732.01520	-159.61099	965.92188	970.62292	243.37830	1053.18347	696.79944	-33.36722	1044.45239	882.84491	15.75641	1067.73572	625.63489	255.38647	570.36188	630.99036	26.35784	617.99408	1026.36194	187.94719	74.75908	530.93909	76.73066	146.14615	815.28394	
442	4.410	140.38654	1693.87451	947.16101							18.29526	1712.79431	859.91052	243.23541	1533.06079	675.99585				145.66847	1474.94739	828.77423				389.09314	1189.27588	613.07910	-206.97525	1217.15857	816.28546	427.76361	910.23145	749.85938	-158.57553	963.77716	976.98492	247.38754	1051.63220	704.62067	-29.54279	1042.75220	888.52533	21.89858	1066.44739	633.58258	256.70648	569.94672	635.09155	28.16118	618.19116	1035.58826	187.70056	75.35540	531.34070	91.36855	137.17572	844.98529	
